<svg width="283" height="120" viewBox="0 0 283 120" fill="none" xmlns="http://www.w3.org/2000/svg">
<path d="M93.3263 10.3044L23.3316 80.2309L49.6649 10.3044H35.816L0 106.974H13.7806L83.0249 38.0022L57.1009 106.974H70.8816L107.107 10.3044H93.3263Z" fill="white"/>
<path d="M259.172 11.123H242.594L215.033 83.9148L207.665 104.176L206.3 107.792H219.876L227.653 87.8716L228.267 86.9165L263.742 87.053L268.722 107.724H282.571L259.172 11.123ZM232.497 74.5685L250.235 27.6325L261.218 74.5685H232.497Z" fill="white"/>
<path d="M231.27 9.69049C230.383 9.48582 229.632 9.4176 229.155 9.4176C230.042 9.55404 230.315 9.62227 231.27 9.69049Z" fill="white"/>
<path d="M229.042 9.33632C228.975 9.33632 228.975 9.33632 228.907 9.33632L226.673 0.138917C226.199 0.138917 225.725 0.0712891 225.184 0.0712891C224.71 0.0712891 224.168 0.0712891 223.694 0.138917L217.872 9.33632C216.789 9.47158 216.518 9.53921 215.435 9.67446L210.967 2.37064C210.763 2.0325 210.357 1.89724 209.951 1.96487C209.409 2.10013 208.868 2.23538 208.326 2.37064C207.92 2.5059 207.514 2.84404 207.378 3.2498L204.129 12.5148C203.046 12.9206 202.775 13.0559 201.759 13.4616L195.26 7.91614C194.989 7.64562 194.515 7.64562 194.109 7.84851C193.635 8.11902 193.094 8.38953 192.62 8.66004C192.214 8.86293 191.943 9.2687 191.875 9.67446L191.13 19.0071C190.183 19.6834 189.912 19.8187 188.964 20.4949L180.908 17.1135C180.569 16.9783 180.095 17.0459 179.689 17.3164C179.215 17.6546 178.809 18.0603 178.335 18.4661C177.997 18.7366 177.794 19.21 177.861 19.6158L179.554 28.3398C178.741 29.1513 178.538 29.4218 177.726 30.2334L168.586 29.219C168.18 29.1513 167.706 29.3542 167.436 29.76C167.097 30.2334 166.759 30.6391 166.42 31.1125C166.149 31.4507 166.082 31.9241 166.285 32.2622L170.347 39.8365C169.737 40.7833 169.602 41.0538 168.993 42.0683L159.447 43.4885C159.041 43.5561 158.635 43.8266 158.431 44.2324C158.161 44.7058 157.958 45.2468 157.754 45.7202C157.551 46.1259 157.619 46.5317 157.89 46.8022L164.118 52.6859C163.78 53.7003 163.712 54.0384 163.374 55.0528L153.354 59.1105C153.219 59.5839 153.151 60.1249 153.015 60.5983C152.948 61.0717 152.88 61.6128 152.745 62.0862L161.207 66.1438C161.139 67.1583 161.139 67.4964 161.072 68.5108L152.609 74.3945C152.203 74.665 152 75.0707 152 75.4765C152 76.0175 152.068 76.4909 152.135 76.9643C152.203 77.3701 152.474 77.6406 152.88 77.7082L161.884 79.1284C162.087 80.0752 162.155 80.3457 162.358 81.3601L155.317 88.9345C154.979 89.2726 154.911 89.746 155.046 90.0841C155.182 90.5575 155.385 90.9633 155.588 91.4367C155.723 91.7748 156.13 91.9777 156.536 91.9777L166.082 90.9633C166.555 91.7748 166.691 92.0454 167.165 92.8569L162.087 101.581C161.884 101.987 161.884 102.392 162.087 102.731C162.358 103.136 162.697 103.474 162.967 103.88C163.238 104.151 163.644 104.286 164.051 104.083L173.461 100.702C174.138 101.31 174.341 101.513 175.086 102.19L172.242 111.522C172.107 111.928 172.242 112.334 172.581 112.537C172.987 112.807 173.393 113.078 173.799 113.348C174.138 113.551 174.612 113.551 174.95 113.281L183.616 107.735C184.496 108.141 184.767 108.276 185.647 108.682L185.105 117.744C185.105 118.15 185.308 118.488 185.715 118.623C186.188 118.758 186.662 118.894 187.136 119.029C187.542 119.164 188.016 118.961 188.287 118.623L195.599 111.319C196.343 111.387 196.682 111.455 197.223 111.522L198.036 109.426C173.055 106.924 157.348 86.2293 162.426 61.1394C167.842 34.3587 195.057 10.9594 222.949 12.5825C226.876 12.7854 230.396 13.1911 233.781 13.935L235 10.7565C233.849 10.3507 232.495 9.87735 231.209 9.60684C230.193 9.53921 229.923 9.47158 229.042 9.33632Z" fill="white"/>
<path d="M161.961 61.2143C156.839 86.6008 172.681 107.471 197.878 110.071L202.385 98.0281C183.06 96.5911 171.794 80.8529 175.754 61.2827C179.919 40.6861 199.107 24.4004 220.275 24.4004C223.553 24.4004 226.557 24.811 229.493 25.4953L234 13.5205C230.586 12.7678 227.035 12.4257 223.075 12.1519C194.873 10.5097 167.423 34.1855 161.961 61.2143Z" fill="white"/>
<path d="M187.538 61.1291C184.81 74.6369 193.133 85.8933 206.436 87.5306L226.015 35.2052C224.309 34.8641 222.604 34.7276 220.626 34.5912C205.344 33.6361 190.472 46.4616 187.538 61.1291Z" fill="white"/>
<path d="M150.426 22.6523C148.107 22.6523 145.855 22.857 143.604 23.2663H157.044C154.929 22.857 152.746 22.6523 150.426 22.6523Z" fill="white"/>
<path d="M195.18 22.1747C191.906 22.1747 188.699 22.584 185.629 23.2662H204.39C201.525 22.584 198.455 22.1747 195.18 22.1747Z" fill="white"/>
<path d="M204.799 23.4028L204.867 23.3346H204.458C204.526 23.3346 204.663 23.3346 204.799 23.4028Z" fill="white"/>
<path d="M150.427 22.6524C152.747 22.6524 154.93 22.8571 157.045 23.2664H159.501C163.458 20.1283 167.687 17.3994 172.258 15.2846C166.664 12.4193 160.183 10.8502 152.952 10.8502C140.604 10.8502 128.46 15.5575 118.5 23.3347H143.605C145.857 22.8571 148.108 22.6524 150.427 22.6524Z" fill="white"/>
<path d="M159.569 23.3346H157.113C157.795 23.471 158.409 23.6075 159.023 23.7439C159.159 23.6075 159.364 23.471 159.569 23.3346Z" fill="white"/>
<path d="M144.628 93.2611C141.968 93.8069 139.239 94.148 136.578 94.148C116.93 94.148 105.196 78.3207 109.085 58.4002C112.496 40.7992 126.822 26.4728 143.673 23.3346H118.568C107.311 31.9987 98.9201 44.4831 96.1912 58.4002C91.0747 84.597 108.266 105.95 134.531 105.95C141.422 105.95 148.244 104.449 154.725 101.857C150.768 99.5374 147.425 96.6039 144.628 93.2611Z" fill="white"/>
</svg>
