<svg width="93" height="40" viewBox="0 0 93 40" fill="none" xmlns="http://www.w3.org/2000/svg">
<path d="M30.7156 3.36792L7.6789 26.3822L16.3457 3.36792H11.7878L0 35.1837H4.53549L27.3252 12.4838L18.7931 35.1837H23.3286L35.2511 3.36792H30.7156Z" fill="white"/>
<path d="M85.299 3.63721H79.8429L70.7719 27.5945L68.347 34.263L67.8979 35.453H72.3661L74.9257 28.8968L75.1278 28.5824L86.8033 28.6273L88.4424 35.4306H93.0003L85.299 3.63721ZM76.5199 24.5184L82.3576 9.07082L85.9726 24.5184H76.5199Z" fill="white"/>
<path d="M76.116 3.16574C75.8241 3.09838 75.5771 3.07593 75.4199 3.07593C75.7118 3.12083 75.8016 3.14329 76.116 3.16574Z" fill="white"/>
<path d="M75.4196 3.07605C75.3971 3.07605 75.3972 3.07605 75.3747 3.07605L74.6337 0.0224529C74.4766 0.0224529 74.3194 0 74.1398 0C73.9826 0 73.803 0 73.6458 0.0224529L71.7149 3.07605C71.3556 3.12096 71.2658 3.14341 70.9066 3.18832L69.4247 0.7634C69.3573 0.651135 69.2226 0.606229 69.0879 0.628682C68.9083 0.673588 68.7286 0.718494 68.549 0.7634C68.4143 0.808306 68.2796 0.92057 68.2347 1.05529L67.1569 4.13134C66.7977 4.26606 66.7079 4.31096 66.3711 4.44568L64.2156 2.60454C64.1258 2.51473 63.9686 2.51473 63.8339 2.58209C63.6767 2.6719 63.4971 2.76171 63.3399 2.85152C63.2052 2.91888 63.1154 3.0536 63.0929 3.18832L62.846 6.28682C62.5316 6.51135 62.4418 6.55626 62.1275 6.78079L59.4556 5.65814C59.3433 5.61323 59.1861 5.63569 59.0514 5.7255C58.8942 5.83776 58.7595 5.97248 58.6024 6.1072C58.4901 6.19701 58.4227 6.35418 58.4452 6.4889L59.0065 9.38533C58.7371 9.65476 58.6697 9.74457 58.4003 10.014L55.3691 9.67722C55.2344 9.65476 55.0772 9.72212 54.9874 9.85684C54.8752 10.014 54.7629 10.1487 54.6506 10.3059C54.5608 10.4182 54.5384 10.5753 54.6057 10.6876L55.9529 13.2023C55.7508 13.5167 55.7059 13.6065 55.5039 13.9433L52.338 14.4148C52.2033 14.4372 52.0686 14.5271 52.0012 14.6618C51.9114 14.8189 51.844 14.9986 51.7767 15.1557C51.7093 15.2905 51.7318 15.4252 51.8216 15.515L53.8872 17.4684C53.775 17.8052 53.7525 17.9174 53.6403 18.2542L50.3172 19.6014C50.2723 19.7586 50.2499 19.9382 50.205 20.0954C50.1825 20.2526 50.1601 20.4322 50.1151 20.5893L52.9218 21.9365C52.8993 22.2733 52.8993 22.3856 52.8769 22.7224L50.0702 24.6758C49.9355 24.7656 49.8682 24.9003 49.8682 25.035C49.8682 25.2146 49.8906 25.3718 49.9131 25.529C49.9355 25.6637 50.0253 25.7535 50.16 25.776L53.1463 26.2475C53.2136 26.5618 53.2361 26.6516 53.3035 26.9884L50.9684 29.5032C50.8561 29.6154 50.8336 29.7726 50.8785 29.8849C50.9235 30.042 50.9908 30.1768 51.0582 30.3339C51.1031 30.4462 51.2378 30.5135 51.3725 30.5135L54.5384 30.1767C54.6955 30.4462 54.7404 30.536 54.8976 30.8054L53.2136 33.7019C53.1463 33.8366 53.1463 33.9713 53.2136 34.0836C53.3035 34.2183 53.4157 34.3305 53.5055 34.4653C53.5954 34.5551 53.7301 34.6 53.8648 34.5326L56.9857 33.41C57.2103 33.612 57.2776 33.6794 57.5246 33.9039L56.5816 37.0024C56.5367 37.1372 56.5816 37.2719 56.6939 37.3392C56.8286 37.4291 56.9633 37.5189 57.098 37.6087C57.2103 37.676 57.3674 37.676 57.4797 37.5862L60.3537 35.7451C60.6456 35.8798 60.7354 35.9247 61.0273 36.0594L60.8476 39.0681C60.8476 39.2028 60.915 39.3151 61.0497 39.36C61.2069 39.4049 61.3641 39.4498 61.5212 39.4947C61.656 39.5396 61.8131 39.4723 61.9029 39.36L64.3279 36.9351C64.5748 36.9575 64.6871 36.98 64.8667 37.0024L65.1362 36.3064C56.851 35.4756 51.6419 28.605 53.3259 20.275C55.1221 11.3836 64.1482 3.61492 73.3988 4.15379C74.7011 4.22115 75.8687 4.35587 76.9913 4.60285L77.3955 3.54756C77.0138 3.41285 76.5647 3.25568 76.1381 3.16586C75.8013 3.14341 75.7115 3.12096 75.4196 3.07605Z" fill="white"/>
<path d="M53.3037 20.2749C51.6197 28.6049 56.8288 35.4531 65.1139 36.3063L66.5958 32.3546C60.2416 31.8831 56.5369 26.7189 57.8392 20.2973C59.2088 13.539 65.5181 8.1952 72.4785 8.1952C73.5562 8.1952 74.5441 8.32992 75.5096 8.55445L76.9915 4.62518C75.8689 4.3782 74.7013 4.26594 73.399 4.17612C64.126 3.63725 55.0999 11.406 53.3037 20.2749Z" fill="white"/>
<path d="M61.723 20.0952C60.8249 24.5409 63.5642 28.2456 67.9425 28.7845L74.3865 11.5631C73.8251 11.4508 73.2638 11.4059 72.6127 11.361C67.5832 11.0466 62.6885 15.2678 61.723 20.0952Z" fill="white"/>
<path d="M49.5085 7.43188C48.7451 7.43188 48.0041 7.49924 47.2632 7.63396H51.6864C50.9904 7.49924 50.2719 7.43188 49.5085 7.43188Z" fill="white"/>
<path d="M64.2381 7.27466C63.1604 7.27466 62.1051 7.40938 61.0947 7.6339H67.2693C66.3263 7.40938 65.3159 7.27466 64.2381 7.27466Z" fill="white"/>
<path d="M67.4043 7.67895L67.4267 7.65649H67.292C67.3144 7.65649 67.3594 7.65649 67.4043 7.67895Z" fill="white"/>
<path d="M49.509 7.43196C50.2724 7.43196 50.9908 7.49932 51.6869 7.63404H52.4952C53.7975 6.60121 55.1895 5.70309 56.6939 5.00705C54.8527 4.06402 52.7197 3.54761 50.3397 3.54761C46.2757 3.54761 42.2791 5.09686 39.001 7.65649H47.2637C48.0046 7.49932 48.7456 7.43196 49.509 7.43196Z" fill="white"/>
<path d="M52.5173 7.65649H51.709C51.9335 7.7014 52.1356 7.74631 52.3377 7.79121C52.3826 7.74631 52.4499 7.7014 52.5173 7.65649Z" fill="white"/>
<path d="M47.6005 30.6708C46.7248 30.8504 45.8267 30.9626 44.951 30.9626C38.4846 30.9626 34.6227 25.7536 35.9025 19.1973C37.0252 13.4044 41.7403 8.68933 47.2862 7.65649H39.0235C35.3187 10.508 32.557 14.6169 31.6589 19.1973C29.9749 27.8192 35.6331 34.847 44.2775 34.847C46.5452 34.847 48.7905 34.353 50.9235 33.4998C49.6213 32.7364 48.5211 31.7709 47.6005 30.6708Z" fill="white"/>
</svg>
