<svg width="65" height="38" viewBox="0 0 65 38" fill="none" xmlns="http://www.w3.org/2000/svg">
<path d="M0.539551 0.263454C0.947799 0.263454 1.2846 0.263454 1.62141 0.263454C4.4077 0.263454 7.2042 0.273827 9.99049 0.253081C10.3579 0.253081 10.5518 0.35681 10.7151 0.709486C12.6033 4.76527 14.4608 8.82105 16.4306 12.8353C17.6553 15.3456 19.1455 17.7002 21.1152 19.7125C22.4523 21.0817 23.9628 22.1709 25.902 22.4821C26.647 22.5962 27.0348 22.2954 27.0348 21.507C27.0451 19.4013 27.0348 17.2853 27.0348 15.1796C27.0348 11.7047 27.0246 8.2298 27.0451 4.75489C27.0451 4.20513 26.9022 3.7591 26.5552 3.34419C25.7489 2.36914 24.9732 1.36298 24.1261 0.304946C28.6882 0.304946 33.1688 0.304946 37.7309 0.304946C37.7309 0.50203 37.7309 0.699114 37.7309 0.896198C37.7309 6.93319 37.7309 12.9598 37.7411 18.9968C37.7411 19.3184 37.833 19.7125 38.0269 19.9304C38.3535 20.3038 38.7822 20.2001 39.17 19.92C40.8336 18.7167 42.2931 17.306 43.6097 15.7397C46.1409 12.742 47.9269 9.26708 49.7947 5.83367C50.7541 4.08066 51.7338 2.3484 52.7238 0.626504C52.8259 0.460538 53.0709 0.263454 53.2546 0.263454C56.2858 0.242709 59.3068 0.253081 62.3381 0.253081C62.3687 0.253081 62.3993 0.263454 62.5116 0.294573C62.3483 0.844333 62.2054 1.40447 62.0115 1.94385C60.6132 5.92703 58.6741 9.6405 56.2756 13.0947C54.7855 15.2418 53.2648 17.3579 51.7645 19.4947C51.2644 20.2001 51.2746 20.5527 51.938 21.1336C54.5201 23.3949 56.888 25.8636 58.97 28.6228C61.0011 31.299 62.7565 34.1412 64.1854 37.1908C64.216 37.2634 64.2466 37.3464 64.3079 37.502C64.0731 37.502 63.8894 37.502 63.7159 37.502C60.6234 37.502 57.5208 37.4916 54.4283 37.5123C53.8669 37.5227 53.4587 37.3567 53.0913 36.9418C51.642 35.3133 50.1927 33.6951 48.7332 32.0666C46.743 29.8468 44.5793 27.876 41.742 26.8387C40.8234 26.5067 39.8538 26.2682 38.8944 26.0711C38.0882 25.8947 37.7105 26.2578 37.7105 27.098C37.7105 30.3862 37.7105 33.664 37.7105 36.9522C37.7105 37.1389 37.7105 37.3256 37.7105 37.6161C36.5981 37.6679 35.5162 37.7613 34.4445 37.7613C28.4127 37.7198 23.0136 35.8216 18.2881 31.994C14.6241 29.0273 11.7664 25.3554 9.3475 21.3099C6.3877 16.3621 4.18316 11.0616 2.30522 5.61584C1.7745 4.05991 1.24378 2.48324 0.713056 0.896198C0.651819 0.709486 0.610994 0.512403 0.539551 0.263454Z" fill="white"/>
</svg>
