<svg width="57" height="40" viewBox="0 0 57 40" fill="none" xmlns="http://www.w3.org/2000/svg">
<path d="M48.5553 39.5186C48.5553 39.5186 33.2134 39.9541 28.0927 39.9541C22.9719 39.9541 7.63012 39.5186 7.63012 39.5186C3.67225 39.5186 0.428429 36.222 0.428429 32.1996C0.428429 32.1996 0 23.0353 0 19.9874C0 16.9395 0.428429 7.77518 0.428429 7.77518C0.428429 3.73209 3.67225 0.43541 7.63012 0.43541C7.63012 0.43541 22.9719 0 28.0927 0C33.2134 0 48.5553 0.43541 48.5553 0.43541C52.5131 0.43541 55.757 3.73209 55.757 7.75445C55.757 7.75445 56.1854 16.9188 56.1854 19.9667C56.1854 23.0145 55.757 32.1789 55.757 32.1789C55.757 36.222 52.5131 39.5186 48.5553 39.5186Z" fill="white"/>
<path fill-rule="evenodd" clip-rule="evenodd" d="M22.0974 27.508V12.4456L34.088 19.9855L22.0974 27.508Z" fill="black"/>
</svg>
